<svg t="1711790707637" class="icon" viewBox="0 0 1024 1024" version="1.1" xmlns="http://www.w3.org/2000/svg" p-id="1681" xmlns:xlink="http://www.w3.org/1999/xlink" width="200" height="200">
  <defs>
    <linearGradient id="grad1" x1="0%" y1="0%" x2="100%" y2="100%">
      <stop offset="0%" style="stop-color:#ffffff" />
      <stop offset="100%" style="stop-color:#0000ff" />
    </linearGradient>
  </defs>
  <path d="M812.00924445 178.34894222c-49.4189989 19.61225443-113.54718777 50.55980999-168.01488555 81.14327666-67.69626112 37.98660779-133.01380779 80.68209778-188.3553189 123.18340779l-10.94693888 8.34977223-1.99035335-2.30589668a381.97779001 381.97779001 0 0 1-7.67013888-9.90321777c-28.13193443-37.50115555-67.69626112-63.47283001-105.94986667-69.71088555-16.50536334-2.59716779-40.3653211-0.29127111-57.86586112 5.77687665-8.34977223 2.79134777-9.15076779 2.8884389-88.06096555 8.64104335-43.73921223 3.2768-80.63355221 5.87396779-81.92 5.87396665-4.9758811 0-0.48545223 1.14081223 18.98116779 4.90306446 49.22481778 9.32067555 76.74993778 16.04418333 101.31380111 24.70949888 14.90337223 5.19433443 42.52558222 16.33545443 43.13239665 17.40344889 1.09226667 1.72335445-6.06814777 55.48714667-9.46631111 71.24005888-1.06799445 5.00015445-2.47580445 11.55375445-3.15543666 14.44219335-0.60681443 2.86416555-1.09226667 13.25283555-1.21363 23.0589622 0 14.8062811 0.41263445 19.61225443 2.30589667 28.56884224 7.16041443 34.51562667 24.6366811 64.41946112 54.46769778 93.06112 17.47626667 16.84517888 34.70980779 29.51547221 77.42956999 56.82213888 24.27259221 15.58300445 39.66141667 24.6366811 68.49725668 40.29250333 11.43239111 6.1652389 23.76286777 12.98583666 27.33093888 15.19464334 26.94257778 16.35972779 48.61800334 34.90398777 108.57130666 92.96403001 31.99127666 31.16600889 43.22948779 41.45758777 42.84112668 39.54005333-1.40780999-8.00995555-10.84984889-53.15697778-14.22374001-67.89044224-14.12664889-61.82229333-30.34074112-115.65890333-42.84112555-142.31020999-2.66998557-5.84969443-5.58269667-11.89356999-6.26232889-13.44701668l-1.28644779-2.9127111 26.43285334 0.41263445c22.25796779 0.29127111 65.41463666-1.26217443 66.70108444-2.30589668a70.97306112 70.97306112 0 0 0-2.88843776-9.61194667c-1.77189888-5.09724445-2.98552889-9.4420389-2.76707555-9.70903665 0.29127111-0.19418112 7.52450333 2.86416555 16.28690887 6.91768889l15.80145778 7.20896 28.83584-7.88859222a1076.78075221 1076.78075221 0 0 0 29.70965333-8.37404444c0.41263445-0.19418112-2.08744334-3.25252779-5.55842333-6.79632668-3.47098112-3.47098112-8.2526811-8.49540779-10.72848554-10.99548445-5.17006222-5.36424334-6.77205333-5.75260445 17.69472 4.12634112l17.18499556 6.9419611 19.58798222-6.91768889c10.7527589-3.85934222 19.97634333-7.20896 20.48606776-7.50023111 0.48545223-0.29127111-3.68943445-4.70888334-9.4663111-9.90321777l-10.31585224-9.41776555 17.59763001 5.67978667 17.69472 5.58269667 46.40919666-16.06845667c25.65612999-8.85949667 49.03063666-16.94227001 51.99189333-17.88890112 2.98552889-0.87381333 5." fill="url(#grad1)" p-id="1682"></path>
</svg>
