<?xml version="1.0" standalone="no"?><!DOCTYPE svg PUBLIC "-//W3C//DTD SVG 1.1//EN" "http://www.w3.org/Graphics/SVG/1.1/DTD/svg11.dtd"><svg t="1711791683400" class="icon" viewBox="0 0 1024 1024" version="1.1" xmlns="http://www.w3.org/2000/svg" p-id="1747" xmlns:xlink="http://www.w3.org/1999/xlink" width="200" height="200"><path d="M876.10010823 107.07119033c-59.97636133 23.80201308-137.80423145 61.36088348-203.90784332 98.4778848-82.15818831 46.10167275-161.42949829 97.91818445-228.59359592 149.49903356l-13.28552938 10.13353098-2.41555179-2.79850453a463.57956382 463.57956382 0 0 1-9.30870781-12.01883851c-34.14174917-45.51251353-82.15818831-77.03250718-128.58389745-84.60319621-20.03139801-3.15199979-48.9885497-0.35349524-70.22772359 7.01098866-10.13353098 3.38766236-11.10564293 3.50549503-106.87339702 10.48702625-53.08320394 3.97682157-97.85926811 7.12882135-99.42053925 7.12881996-6.03887674 0-0.58915921 1.38452353 23.03610763 5.95050432 59.74069738 11.31184801 93.14599856 19.47169627 122.95743092 29.98817996 18.08717412 6.30399817 51.61030659 19.82519152 52.34675457 21.12134123 1.3256072 2.09151403-7.36448393 67.34084526-11.48859565 86.45904628-1.29614971 6.06833559-3.00470964 14.02197874-3.82953142 17.52747376-0.73644798 3.47603617-1.3256072 16.0840339-1.47289734 27.98503975 0 17.96934145 0.50078539 23.80201308 2.79850454 34.67199344 8.69009111 41.88918721 29.89980617 78.18136674 66.10361188 112.94173258 21.20971504 20.44380821 42.12485118 35.82085161 93.97082034 68.96103138 29.45793709 18.91199591 48.13427042 29.89980617 83.13030026 48.90017589 13.87468859 7.48231661 28.83932041 15.75999613 33.16963722 18.44066937 32.69831069 19.85465038 59.00424939 42.36051375 131.76535469 112.82390132 38.82556125 37.82399183 52.46458725 50.31415689 51.99326071 47.98698026-1.70855991-9.72111939-13.16769809-64.51288325-17.26235231-82.39385226-17.14451966-75.02936695-36.8224224-140.36707202-51.99325934-172.71188745-3.2403736-7.09936249-6.77532609-14.43438895-7.6001479-16.31969787l-1.56127114-3.5349525 32.079694 0.5007854c27.01292921 0.35349524 79.38914127-1.53181229 80.95041241-2.79850453a86.13500989 86.13500989 0 0 0-3.50549366-11.66534328c-2.15042898-6.1861669-3.62332633-11.45913818-3.35820487-11.78317456 0.35349524-0.23566397 9.13196019 3.47603617 19.76627518 8.39551221l19.17711735 8.74900745 34.99602983-9.57382925a1306.81302549 1306.81302549 0 0 0 36.05651556-10.16298845c0.50078539-0.23566397-2.53338309-3.94736411-6.74586724-8.24822343-4.21248553-4.21248553-10.0156983-10.31027861-13.02040793-13.34444572-6.27454069-6.51020465-8.21876458-6.9815312 21.47483648 5.00784984l20.85621979 8.42496968 23.7725556-8.3955122c13.04986679-4.68381206 24.24388215-8.74900746 24.86249883-9.10250271 0.58915921-0.35349524-4.47760697-5.71484035-11.48859564-12.01883851l-12.51962392-11.42967931 21.35700518 6.89315738 21.47483648 6.77532609 56.32357616-19.50115511c31.13703954-10.75214766 59.50503341-20.56164089 63.09890225-21.71050044 3.62332633-1.06048575 7.01098868-2.44500928 7.60014789-2.79850316 1.3256072-1.29614971-58.50346399-26.71834891-111.70449922-47.48619626-61.27250965-23.91984576-150.20602406-54.73284752-186.64549236-64.66017201-7.60014789-1.97368137-14.34601513-4.09465286-14.84680054-4.53652332-0.47132654-0.58915921 12.66691269-19.38332245 29.31064833-42.0070185 16.55536045-22.65315353 30.19438646-41.32948686 30.19438646-41.44731814 0-0.23566397-3.77061647-0.79536432-8.45442854-1.17831705-4.59543826-0.44186907-8.45442853-1.14885956-8.45442853-1.47289733 0-0.38295274 17.96934145-25.56948934 39.94496332-55.91116595 21.94616302-30.34167522 40.06279462-55.5576707 40.1806273-56.14682851 0-0.47132654-3.88844775-1.26669086-8.69009113-1.76747627a55.38092306 55.38092306 0 0 1-9.30870918-1.14885956c-0.47132654-0.47132654 9.30870781-13.63902463 62.98107095-84.83886015 16.17240771-21.35700518 29.31064833-39.09068268 29.07498437-39.17905652-0.23566397-0.26512144-9.27925033 3.12254092-20.26706058 7.45285776z" fill="#3e7ff2" p-id="1748"></path></svg>